<svg id="Capa_1" data-name="Capa 1" xmlns="http://www.w3.org/2000/svg" viewBox="0 0 187.00701 46.52872"><defs><style>.cls-1,.cls-3,.cls-4{fill:#fff;}.cls-2{fill:#ff3d2e;}.cls-3{font-size:14px;font-family:OpenSans-SemiBold, Open Sans;font-weight:600;letter-spacing:0.05399em;}.cls-4{font-size:11px;font-family:OpenSans-Bold, Open Sans;font-weight:700;letter-spacing:0.05402em;}</style></defs><title>clutch-1</title><rect class="cls-1" x="23.94238" y="18.71724" width="4" height="25"/><path class="cls-1" d="M46.7915,46.069a3.8752,3.8752,0,0,1-4.174,4.131c-2.391,0-2.826-2.238-2.826-3.588V37.044h-4v9.548a7.78951,7.78951,0,0,0,2.048,5.63,6.67841,6.67841,0,0,0,4.748,1.783,6.86746,6.86746,0,0,0,4.204-1.326v1.365h4v-17h-4Z" transform="translate(-4.84912 -10.32675)"/><polygon class="cls-1" points="53.942 20.717 49.942 20.717 49.942 26.717 46.942 26.717 46.942 30.717 49.942 30.717 49.942 43.717 53.942 43.717 53.942 30.717 56.942 30.717 56.942 26.717 53.942 26.717 53.942 20.717"/><path class="cls-1" d="M74.3885,48.961a4.85789,4.85789,0,0,1-3.283,1.217,4.68814,4.68814,0,0,1-4.825-4.848,4.58254,4.58254,0,0,1,4.825-4.762,4.97925,4.97925,0,0,1,3.305,1.196l.607.522,2.697-2.696-.675-.609a8.82594,8.82594,0,0,0-5.935-2.237,8.32018,8.32018,0,0,0-8.631,8.565,8.47168,8.47168,0,0,0,8.631,8.673,8.73231,8.73231,0,0,0,5.979-2.26l.652-.609-2.739-2.694Z" transform="translate(-4.84912 -10.32675)"/><path class="cls-1" d="M91.9915,38.526a6.22571,6.22571,0,0,0-8.2-.457V29.044h-4v25h4V44.679c0-3.826,2.718-4.13,3.675-4.13,2.391,0,2.325,2.239,2.325,3.587v9.908h4V44.157c0-2.37-.495-4.326-1.8-5.631" transform="translate(-4.84912 -10.32675)"/><path class="cls-2" d="M70.9735,42.482a2.892,2.892,0,1,1-2.891,2.892,2.8912,2.8912,0,0,1,2.891-2.892" transform="translate(-4.84912 -10.32675)"/><path class="cls-1" d="M23.1915,47.765a7.9864,7.9864,0,0,1-5.761,2.413c-4.456,0-7.696-3.5-7.696-8.304,0-4.826,3.24-8.326,7.696-8.326a8.0775,8.0775,0,0,1,5.74,2.391l.608.609,2.674-2.674-.587-.609a11.64065,11.64065,0,0,0-8.435-3.521c-6.565,0-11.5,5.217-11.5,12.151,0,6.913,4.957,12.109,11.5,12.109a11.67418,11.67418,0,0,0,8.457-3.543l.587-.609-2.652-2.717Z" transform="translate(-4.84912 -10.32675)"/><polygon class="cls-2" points="112.412 14.915 107.598 12.336 102.744 14.838 103.71 9.463 99.83 5.62 105.24 4.878 107.696 0 110.074 4.916 115.472 5.745 111.531 9.525 112.412 14.915"/><polygon class="cls-2" points="130.805 14.915 125.991 12.336 121.137 14.838 122.103 9.463 118.223 5.62 123.633 4.878 126.089 0 128.467 4.916 133.865 5.745 129.924 9.525 130.805 14.915"/><polygon class="cls-2" points="149.578 14.915 144.765 12.336 139.911 14.838 140.877 9.463 136.997 5.62 142.407 4.878 144.863 0 147.241 4.916 152.639 5.745 148.698 9.525 149.578 14.915"/><polygon class="cls-2" points="166.993 14.915 162.18 12.336 157.326 14.838 158.292 9.463 154.411 5.62 159.822 4.878 162.278 0 164.656 4.916 170.054 5.745 166.113 9.525 166.993 14.915"/><polygon class="cls-2" points="183.947 14.915 179.133 12.336 174.279 14.838 175.245 9.463 171.365 5.62 176.775 4.878 179.231 0 181.609 4.916 187.007 5.745 183.066 9.525 183.947 14.915"/><text class="cls-3" transform="translate(104.78978 42.57781)">5 REVIEWS</text><text class="cls-4" transform="translate(0.00003 10.77201)">REVIEWED ON</text></svg>